HIERARCHY
ROOT Hips
{
  OFFSET 0.000000 0.000000 0.000000
  CHANNELS 6 Xposition Yposition Zposition Zrotation Xrotation Yrotation
  JOINT Spine
  {
    OFFSET 0.000000 0.201924 0.000000
    CHANNELS 3 Zrotation Xrotation Yrotation
    JOINT Chest
    {
      OFFSET 0.000000 0.302887 0.000000
      CHANNELS 3 Zrotation Xrotation Yrotation
      JOINT Neck
      {
        OFFSET 0.000000 0.082757 0.000000
        CHANNELS 3 Zrotation Xrotation Yrotation
        JOINT Head
        {
          OFFSET 0.000000 0.082757 0.000000
          CHANNELS 3 Zrotation Xrotation Yrotation
          JOINT HeadTip
          {
            OFFSET 0.000000 0.057930 0.000000
            CHANNELS 3 Zrotation Xrotation Yrotation
            End Site
            {
              OFFSET 0 0.02 0
            }
          }
        }
      }
      JOINT LeftArm
      {
        OFFSET 0.127688 0.000000 0.000000
        CHANNELS 3 Zrotation Xrotation Yrotation
        JOINT LeftForeArm
        {
          OFFSET 0.234259 0.000000 0.000000
          CHANNELS 3 Zrotation Xrotation Yrotation
          JOINT LeftHand
          {
            OFFSET 0.234985 0.000000 0.000000
            CHANNELS 3 Zrotation Xrotation Yrotation
            JOINT LeftFinger
            {
              OFFSET 0.047728 0.000000 0.000000
              CHANNELS 3 Zrotation Xrotation Yrotation
              End Site
              {
                OFFSET 0 0.02 0
              }
            }
          }
        }
      }
      JOINT RightArm
      {
        OFFSET -0.127688 0.000000 0.000000
        CHANNELS 3 Zrotation Xrotation Yrotation
        JOINT RightForeArm
        {
          OFFSET -0.292811 0.000000 0.000000
          CHANNELS 3 Zrotation Xrotation Yrotation
          JOINT RightHand
          {
            OFFSET -0.213811 0.000000 0.000000
            CHANNELS 3 Zrotation Xrotation Yrotation
            JOINT RightFinger
            {
              OFFSET -0.093548 0.000000 0.000000
              CHANNELS 3 Zrotation Xrotation Yrotation
              End Site
              {
                OFFSET 0 0.02 0
              }
            }
          }
        }
      }
    }
  }
  JOINT LeftUpLeg
  {
    OFFSET 0.113381 -0.017007 0.000000
    CHANNELS 3 Zrotation Xrotation Yrotation
    JOINT LeftLeg
    {
      OFFSET 0.000000 -0.382927 0.000000
      CHANNELS 3 Zrotation Xrotation Yrotation
      JOINT LeftFoot
      {
        OFFSET 0.000000 -0.379044 0.000000
        CHANNELS 3 Zrotation Xrotation Yrotation
        JOINT LeftToe
        {
          OFFSET 0.000000 0.000000 0.106774
          CHANNELS 3 Zrotation Xrotation Yrotation
          End Site
          {
            OFFSET 0 0.02 0
          }
        }
      }
    }
  }
  JOINT RightUpLeg
  {
    OFFSET -0.113381 -0.017007 0.000000
    CHANNELS 3 Zrotation Xrotation Yrotation
    JOINT RightLeg
    {
      OFFSET 0.000000 -0.334607 0.000000
      CHANNELS 3 Zrotation Xrotation Yrotation
      JOINT RightFoot
      {
        OFFSET 0.000000 -0.431842 0.000000
        CHANNELS 3 Zrotation Xrotation Yrotation
        JOINT RightToe
        {
          OFFSET 0.000000 0.000000 0.128119
          CHANNELS 3 Zrotation Xrotation Yrotation
          End Site
          {
            OFFSET 0 0.02 0
          }
        }
      }
    }
  }
}
MOTION
Frames: 8
Frame Time: 0.033366667
0.000000 0.774494 0.000000 1.777933 8.359174 -0.129937 0.000000 0.000000 0.000000 -8.908087 34.414241 1.598298 0.000000 0.000000 0.000000 -0.000000 0.000000 -0.000000 -0.000000 0.000000 0.000000 -88.780407 -10.717168 -33.732783 14.724881 1.195856 -4.466375 -3.655483 -5.844981 7.808577 0.000000 0.000000 0.000000 82.776605 11.959639 60.770331 11.398882 -22.016291 -14.603376 -91.010964 34.921091 141.683840 0.000000 0.000000 -0.000000 6.268013 2.985626 0.249703 -43.851084 23.882925 3.436752 24.156745 86.320456 4.223286 0.000000 0.000000 -0.000000 10.417772 -6.956306 1.501380 -38.540991 17.791070 3.793927 13.857874 6.112911 50.086815 0.000000 0.000000 -0.000000
0.000000 0.782417 0.000000 1.809627 7.284760 -0.115206 -0.000000 0.000000 -0.000000 -11.292707 36.624536 2.479645 -0.000000 0.000000 0.000000 0.000000 -0.000000 -0.000000 -0.000000 0.000000 0.000000 -87.264785 -15.201267 -32.019721 17.675242 2.489113 -8.455719 -2.013342 -2.359168 3.615360 -0.000000 0.000000 0.000000 88.239323 15.714162 60.646782 11.681675 -25.064206 -15.529632 -105.234914 15.137959 155.557550 0.000000 0.000000 0.000000 13.377067 -0.296273 0.896542 -49.779041 18.151870 2.705744 -60.143584 70.706494 101.336733 -0.000000 0.000000 -0.000000 2.845271 -2.866869 0.297163 -22.765684 14.103365 1.385444 7.921279 2.488866 51.351632 -0.000000 0.000000 0.000000
0.000000 0.786650 0.000000 1.825255 6.232370 -0.099378 -0.000000 0.000000 -0.000000 -13.293450 38.166002 3.318266 0.000000 -0.000000 -0.000000 -0.000000 0.000000 0.000000 -0.000000 0.000000 -0.000000 -86.282677 -18.900911 -29.987238 19.448834 3.212242 -11.687396 -2.252541 -0.560659 1.182147 0.000000 0.000000 0.000000 92.730891 19.569926 60.415828 12.153840 -28.819796 -16.486244 -114.883230 -15.752199 162.741750 0.000000 0.000000 0.000000 19.014846 -3.059899 1.608090 -51.104734 14.982547 2.813349 -50.331049 54.865449 103.339710 0.000000 0.000000 0.000000 -3.143638 0.448266 -0.166012 -11.747972 10.892662 0.567328 4.485161 -0.027684 52.230035 -0.000000 0.000000 -0.000000
0.000000 0.787195 0.000000 1.825004 5.206668 -0.082986 0.000000 0.000000 -0.000000 -14.857061 39.066624 4.029969 -0.000000 0.000000 0.000000 0.000000 0.000000 0.000000 -0.000000 0.000000 0.000000 -85.843863 -21.820770 -27.640256 20.182562 3.682256 -14.079973 -3.775426 0.439029 -0.004982 -0.000000 0.000000 -0.000000 96.189158 23.527244 60.334888 13.033782 -33.612287 -17.406707 -123.544548 -52.720872 162.695013 -0.000000 0.000000 -0.000000 23.084420 -5.218821 2.216161 -47.968581 14.001422 3.077232 -39.457489 40.845447 101.652530 0.000000 0.000000 0.000000 -7.604246 2.906610 -0.199368 -5.225128 8.634516 0.467325 3.581224 -1.765918 52.785942 0.000000 0.000000 -0.000000
0.000000 0.784050 0.000000 1.828617 4.064921 -0.064900 -0.000000 0.000000 -0.000000 -16.333046 39.265083 4.676843 0.000000 0.000000 -0.000000 -0.000000 -0.000000 -0.000000 0.000000 0.000000 0.000000 -85.797850 -24.182429 -24.630955 19.582529 3.843968 -14.976606 -8.142342 2.188090 -1.326114 -0.000000 0.000000 0.000000 99.144638 28.908135 60.889258 12.785810 -42.477080 -20.019279 -187.778902 -85.536641 102.202071 0.000000 0.000000 -0.000000 26.440965 -7.321936 2.798477 -39.514967 16.436981 2.945250 -31.084338 24.755874 98.383705 -0.000000 0.000000 0.000000 -10.267880 3.949765 -0.073417 -4.611880 7.978013 0.595292 5.973853 -1.732373 52.856087 0.000000 0.000000 0.000000
0.000000 0.774078 0.000000 1.794117 3.101698 -0.048578 -0.000000 -0.000000 0.000000 -16.226284 38.728192 4.700293 0.000000 -0.000000 -0.000000 -0.000000 0.000000 -0.000000 0.000000 0.000000 0.000000 -85.975828 -26.302884 -20.957247 18.518811 4.354151 -15.987330 -9.688272 2.089334 -0.518026 0.000000 0.000000 -0.000000 99.473947 33.021171 62.011311 17.156026 -48.738131 -17.844559 -286.429364 -72.407827 7.754612 -0.000000 0.000000 0.000000 26.949074 -8.139891 2.829390 -26.913071 17.616566 1.042068 -29.815831 13.214203 97.195535 -0.000000 0.000000 0.000000 -12.272774 4.881927 0.115058 -5.456994 7.549607 0.679621 9.752469 -2.894369 52.450883 0.000000 0.000000 0.000000
0.000000 0.761412 0.000000 1.545510 2.525681 -0.034072 0.000000 0.000000 0.000000 -15.632222 37.935778 4.552292 0.000000 0.000000 0.000000 -0.000000 0.000000 -0.000000 -0.000000 0.000000 -0.000000 -88.817341 -25.867464 -18.971219 17.889682 5.057953 -16.227794 -11.036020 0.113118 2.423115 0.000000 0.000000 0.000000 96.458022 35.784064 65.510278 28.744781 -51.160858 -8.939763 -292.308220 -62.039328 8.978044 -0.000000 0.000000 -0.000000 25.908116 -6.227277 2.102798 -13.006710 16.254183 -1.579793 -31.659942 4.437327 94.582949 -0.000000 0.000000 -0.000000 -12.552624 6.086416 0.309926 -8.245049 7.245834 0.605634 13.950706 -4.589038 51.651107 -0.000000 0.000000 0.000000
0.000000 0.747608 0.000000 1.108523 2.459639 -0.023798 0.000000 0.000000 -0.000000 -14.543903 36.456114 4.159180 0.000000 -0.000000 -0.000000 -0.000000 0.000000 -0.000000 0.000000 0.000000 0.000000 -93.338988 -24.251803 -17.449585 15.302019 7.135904 -15.973147 -15.125356 -1.400695 4.573692 0.000000 0.000000 0.000000 90.293729 38.500969 71.987925 37.747320 -46.938442 1.036146 -276.493354 -67.335317 33.305273 0.000000 0.000000 -0.000000 24.382660 -2.126103 1.013177 -3.173713 13.373140 -2.650543 -33.171548 -2.743839 93.057627 0.000000 0.000000 0.000000 -12.513001 7.552550 0.486519 -10.841506 7.100924 0.433715 16.482301 -4.587888 51.461444 -0.000000 0.000000 -0.000000
